<svg width="320" height="120" viewBox="0 0 320 120" fill="none" xmlns="http://www.w3.org/2000/svg">
<g clip-path="url(#clip0_485_449)">
<path d="M121.369 49.7916H7.94922V82.633H121.369V49.7916Z" fill="black"/>
<path d="M117.568 48.631L122.019 44.9445L80.325 40.9033L64.5327 7.46057L48.7405 40.9033L7.04688 44.9445L10.7093 48.631H117.568Z" fill="#CB1517"/>
<path d="M35.601 83.7998L29.0039 113.526L64.5334 92.7122L100.063 113.526L93.3816 83.7998H35.601Z" fill="#CB1517"/>
<path fill-rule="evenodd" clip-rule="evenodd" d="M17.9824 75.5068C18.9507 75.573 19.6302 74.8874 20.0452 74.0815C20.4661 73.2516 20.6887 72.1692 20.6887 71.1228C20.6887 69.2344 19.7926 67.4303 17.9945 67.5085L17.6577 67.5265V75.4888L17.9824 75.5128V75.5068ZM21.4885 55.9981C22.6431 57.2068 23.2926 59.1132 23.2926 61.0797C23.2926 63.1725 22.6973 64.7121 21.4103 65.8547L21.1156 66.1133L21.4524 66.3298C22.8235 67.1958 23.5813 69.6133 23.5813 71.676C23.5813 76.2706 20.4421 78.1469 17.3029 78.1469H14.7109V54.645H17.2006C18.6079 54.645 20.418 54.8735 21.4885 56.0041M17.6577 64.6218H18.0125C19.7204 64.6218 20.5383 63.0101 20.5383 61.1699C20.5383 60.2558 20.3398 59.2876 19.9429 58.5419C19.552 57.8142 18.9086 57.2008 17.9824 57.267L17.6577 57.291V64.6218ZM32.0667 54.2541C34.9654 54.2541 38.2008 57.3151 38.2008 66.3899C38.2008 75.4647 34.9654 78.5257 32.0667 78.5257C29.1681 78.5257 25.9267 75.4647 25.9267 66.3899C25.9267 57.3151 29.1621 54.2541 32.0667 54.2541ZM33.8047 73.9553C34.1896 73.2697 34.4422 72.3496 34.6166 71.3994C34.9654 69.499 35.0075 67.3581 35.0075 66.3839C35.0075 65.3014 34.9654 63.1425 34.6166 61.2541C34.4422 60.31 34.1896 59.4019 33.8047 58.7283C33.4319 58.0608 32.8726 57.5196 32.0607 57.5196C31.2489 57.5196 30.6896 58.0608 30.3167 58.7283C29.9379 59.4079 29.6793 60.31 29.5049 61.2541C29.1561 63.1425 29.108 65.3014 29.108 66.3839C29.108 67.3521 29.1561 69.499 29.5049 71.3994C29.6793 72.3496 29.9379 73.2637 30.3167 73.9553C30.6896 74.6288 31.2429 75.1881 32.0607 75.1881C32.8786 75.1881 33.4319 74.6348 33.8047 73.9553ZM47.889 62.6253C47.889 60.1175 47.1373 58.8366 46.2834 58.1991C45.8624 57.8864 45.4414 57.7361 45.1167 57.6759C44.9363 57.6398 44.6717 57.6398 44.4732 57.6458L44.2266 57.6579V67.9054L44.5333 67.8513C44.7498 67.8152 45.0144 67.761 45.1828 67.6949C45.4956 67.5686 45.9045 67.3581 46.3134 66.9913C47.1253 66.2576 47.8951 64.9406 47.8951 62.6253M50.9621 62.8839C50.9621 65.4578 49.7413 67.9294 47.6064 69.4509L47.1073 69.7636L51.6597 78.1409H48.0755L44.7138 71.2851L44.2206 71.3753V71.8083V78.1409H41.2799V54.6389H43.932C46.9268 54.6389 50.9621 56.4551 50.9621 62.8839ZM62.6469 57.7361C62.1417 57.5256 61.5343 57.3391 61.0172 57.3391C60.2835 57.3391 59.7603 57.5196 59.3453 57.7902C59.1469 57.9225 58.9785 58.0728 58.8281 58.2232C58.6838 58.3675 58.5515 58.5178 58.4132 58.6622C56.9699 60.1656 56.5249 64.5858 56.5249 66.3899C56.5249 67.6468 56.6511 69.7516 57.1864 71.5437C57.7036 73.2817 58.6718 74.9776 60.53 74.9776H60.8788V65.3014H63.8196V78.1409H61.1134C54.8951 78.1409 53.3255 71.9286 53.3255 66.5162C53.3255 60.8632 55.2439 54.4225 60.073 54.2541C60.7586 54.23 61.3419 54.2901 61.7569 54.3563L62.1898 54.4345L62.8393 57.8202L62.6409 57.7361H62.6469ZM74.9571 54.6389H77.8979V78.1409H74.9571V67.5746H70.555V78.1409H67.6143V54.6389H70.555V64.5797H74.9571V54.6389ZM84.2966 64.5797H87.55V67.5987H84.2966V75.1159H88.0431V78.1348H81.3558V54.6329H87.995V57.6519H84.3026V64.5737L84.2966 64.5797ZM95.9753 78.1409H93.0346V57.6579H90.172V54.6389H98.868V57.6579H95.9753V78.1409ZM106.259 78.1409H103.318V57.6579H100.456V54.6389H109.152V57.6579H106.265V78.1409H106.259ZM111.671 54.6389H114.612V78.1409H111.671V54.6389Z" fill="#EBE5D4"/>
<path d="M46.2833 58.1991C45.8623 57.8864 45.4413 57.736 45.1166 57.6759C44.9362 57.6398 44.6716 57.6398 44.4731 57.6458L44.2266 57.6578V67.9053L44.5333 67.8512C44.7498 67.8151 45.0144 67.761 45.1828 67.6949C45.4955 67.5686 45.9044 67.3581 46.3134 66.9912C47.1252 66.2576 47.895 64.9405 47.895 62.6252C47.895 60.1175 47.1433 58.8365 46.2893 58.1991H46.2833ZM45.9585 66.6064C45.6639 66.871 45.3391 67.0694 44.9843 67.2138C44.9302 67.2378 44.846 67.2558 44.7377 67.2859V58.169C44.834 58.169 44.9302 58.169 45.0084 58.187C45.2489 58.2352 45.6097 58.3494 45.9706 58.62C46.8847 59.3056 47.3718 60.6948 47.3718 62.6312C47.3718 64.4294 46.8967 65.7644 45.9645 66.6124L45.9585 66.6064Z" fill="#C0A965"/>
<path d="M21.957 66.0472C23.2019 64.8384 23.8093 63.2087 23.8093 61.0798C23.8093 58.9509 23.0816 56.9122 21.8668 55.6433C20.9166 54.633 19.347 54.1218 17.2061 54.1218H14.1992V78.6641H17.3084C20.4415 78.6641 24.1039 76.8359 24.1039 71.6761C24.1039 69.7096 23.4304 67.1778 21.963 66.0532L21.957 66.0472ZM17.3023 78.1409H14.7104V54.639H17.2001C18.6073 54.639 20.4175 54.8675 21.4879 55.9981C22.6426 57.2069 23.2921 59.1133 23.2921 61.0798C23.2921 63.1726 22.6967 64.7121 21.4098 65.8547L21.1151 66.1133L21.4519 66.3298C22.823 67.1958 23.5807 69.6134 23.5807 71.6761C23.5807 76.2706 20.4415 78.1469 17.3023 78.1469V78.1409Z" fill="#C0A965"/>
<path d="M99.9375 58.1811H102.8V78.6641H106.781V58.1811H109.668V54.1218H99.9375V58.1811ZM100.455 54.639H109.151V57.6579H106.264V78.1409H103.323V57.6579H100.461V54.639H100.455Z" fill="#C0A965"/>
<path d="M32.0674 53.7369C28.85 53.7369 25.4102 57.0626 25.4102 66.39C25.4102 75.7174 28.85 79.043 32.0674 79.043C35.2848 79.043 38.7187 75.7174 38.7187 66.39C38.7187 57.0626 35.2848 53.7369 32.0674 53.7369ZM32.0674 78.5258C29.1688 78.5258 25.9273 75.4648 25.9273 66.39C25.9273 57.3151 29.1628 54.2541 32.0674 54.2541C34.9661 54.2541 38.2015 57.3151 38.2015 66.39C38.2015 75.4648 34.9661 78.5258 32.0674 78.5258Z" fill="#C0A965"/>
<path d="M33.8022 58.7284C33.4294 58.0609 32.8701 57.5197 32.0582 57.5197C31.2464 57.5197 30.6871 58.0609 30.3142 58.7284C29.9354 59.408 29.6768 60.3101 29.5024 61.2542C29.1536 63.1426 29.1055 65.3015 29.1055 66.384C29.1055 67.3522 29.1536 69.4991 29.5024 71.3995C29.6768 72.3497 29.9354 73.2638 30.3142 73.9554C30.6871 74.6289 31.2404 75.1882 32.0582 75.1882C32.8761 75.1882 33.4294 74.6349 33.8022 73.9554C34.1871 73.2698 34.4397 72.3497 34.6141 71.3995C34.9629 69.4991 35.005 67.3582 35.005 66.384C35.005 65.3015 34.9629 63.1426 34.6141 61.2542C34.4397 60.3101 34.1871 59.402 33.8022 58.7284ZM34.1089 71.3093C33.9165 72.3437 33.6639 73.1495 33.3512 73.7088C32.822 74.671 32.2507 74.671 32.0643 74.671C31.5531 74.671 31.1321 74.3583 30.7713 73.7088C30.4586 73.1435 30.206 72.3376 30.0136 71.3093C29.6648 69.4029 29.6287 67.2319 29.6287 66.39C29.6287 65.2895 29.6768 63.1786 30.0136 61.3504C30.2 60.3401 30.4526 59.5403 30.7653 58.981C31.1261 58.3435 31.5471 58.0368 32.0582 58.0368C32.5694 58.0368 32.9904 58.3435 33.3452 58.981C33.6579 59.5283 33.9105 60.3281 34.0969 61.3504C34.4156 63.0644 34.4818 65.0369 34.4818 66.39C34.4818 67.4484 34.4337 69.4931 34.0969 71.3093H34.1089Z" fill="#C0A965"/>
<path d="M17.993 67.5085L17.6562 67.5266V75.4888L17.981 75.5129C18.9492 75.5791 19.6288 74.8935 20.0437 74.0876C20.4647 73.2577 20.6872 72.1752 20.6872 71.1288C20.6872 69.2405 19.7911 67.4304 17.993 67.5146V67.5085ZM19.5807 73.8471C19.3221 74.3522 18.865 74.9536 18.1734 74.9957V68.0317C19.5446 68.0859 20.17 69.6615 20.17 71.1288C20.17 72.1271 19.9535 73.1194 19.5867 73.8471H19.5807Z" fill="#C0A965"/>
<path d="M111.152 54.1218V78.6641H115.133V54.1218H111.152ZM114.61 78.1409H111.67V54.639H114.61V78.1409Z" fill="#C0A965"/>
<path d="M89.6484 58.1811H92.511V78.6641H96.4921V58.1811H99.3848V54.1218H89.6484V58.1811ZM90.1656 54.639H98.8616V57.6579H95.9689V78.1409H93.0282V57.6579H90.1656V54.639Z" fill="#C0A965"/>
<path d="M20.5369 61.176C20.5369 60.2619 20.3384 59.2937 19.9415 58.548C19.5506 57.8203 18.9071 57.2069 17.981 57.2731L17.6562 57.2971V64.628H18.0111C19.719 64.628 20.5369 63.0163 20.5369 61.176ZM18.1734 57.7903C18.8229 57.8203 19.2439 58.3496 19.4844 58.7946C19.8272 59.432 20.0197 60.298 20.0197 61.176C20.0197 62.475 19.5326 63.9845 18.1734 64.0987V57.7903Z" fill="#C0A965"/>
<path d="M60.3676 74.4544C59.1649 74.3702 58.2628 73.3419 57.6915 71.3934C57.0961 69.3908 57.048 67.0574 57.048 66.3899C57.048 64.6459 57.487 60.3761 58.792 59.017L58.9363 58.8606C59.0205 58.7704 59.1047 58.6802 59.2009 58.584C59.3573 58.4276 59.4956 58.3134 59.64 58.2172C60.0188 57.9646 60.4578 57.8503 61.0231 57.8503C61.384 57.8503 61.8951 57.9766 62.4544 58.2111L63.5429 58.6622L62.6408 53.9834L61.847 53.8391C61.3719 53.7669 60.8848 53.7249 60.3917 53.7249C60.2834 53.7249 60.1812 53.7249 60.0669 53.7249C55.0635 53.8993 52.8203 60.2679 52.8203 66.5042C52.8203 74.2199 55.8452 78.646 61.1254 78.646H64.3488V64.7722H60.3676V74.4424V74.4544ZM60.8848 74.9836V65.3074H63.8256V78.1469H61.1193C54.9011 78.1469 53.3315 71.9346 53.3315 66.5222C53.3315 61.1098 55.2499 54.4285 60.079 54.2601C60.7645 54.236 61.3479 54.2962 61.7628 54.3623L62.1958 54.4405L62.8453 57.8263L62.6468 57.7421C62.1417 57.5316 61.5343 57.3452 61.0171 57.3452C60.2834 57.3452 59.7602 57.5256 59.3453 57.7962C59.1468 57.9285 58.9784 58.0788 58.8281 58.2292C58.6838 58.3735 58.5515 58.5239 58.4131 58.6682C56.9698 60.1716 56.5248 64.5918 56.5248 66.3959C56.5248 67.6528 56.6511 69.7576 57.1863 71.5497C57.7035 73.2877 58.6717 74.9836 60.53 74.9836H60.8788H60.8848Z" fill="#C0A965"/>
<path d="M84.8132 68.1219H88.0666V64.0626H84.8132V58.1811H88.5056V54.1218H80.832V78.6641H88.5598V74.6048H84.8132V68.1219ZM88.0426 75.122V78.1409H81.3552V54.639H87.9945V57.6579H84.302V64.5798H87.5555V67.5987H84.302V75.116H88.0486L88.0426 75.122Z" fill="#C0A965"/>
<path d="M74.4405 64.0626H71.0728V54.1218H67.0977V78.6641H71.0728V68.0979H74.4405V78.6641H78.4216V54.1218H74.4405V64.0626ZM74.9577 54.639H77.8984V78.1409H74.9577V67.5747H70.5556V78.1409H67.6148V54.639H70.5556V64.5798H74.9577V54.639Z" fill="#C0A965"/>
<path d="M47.9061 69.872C50.1432 68.2723 51.4783 65.6623 51.4783 62.8839C51.4783 56.4131 47.413 54.1218 43.931 54.1218H40.7617V78.6641H44.7429V72.518L47.7558 78.6641H52.5367L47.7979 69.9441L47.9061 69.872ZM51.6587 78.1409H48.0745L44.7128 71.2852L44.2197 71.3754V71.8084V78.1409H41.2789V54.639H43.931C46.9259 54.639 50.9611 56.4552 50.9611 62.8839C50.9611 65.4578 49.7403 67.9295 47.6054 69.451L47.1063 69.7637L51.6587 78.1409Z" fill="#C0A965"/>
<path d="M6.78906 48.6311V83.7998H122.537V48.6311H6.78906ZM121.37 82.6391H7.94972V49.7978H121.37V82.6391Z" fill="#C0A965"/>
<path d="M93.3825 83.7997L100.064 113.526L64.5343 92.7121L29.0048 113.526L35.602 83.7997H32.3485L24.6328 119.57L64.5343 96.1941L104.436 119.57L96.7142 83.7997H93.3825Z" fill="#C0A965"/>
<path d="M82.3108 38.0828L64.528 0.43042L46.7573 38.0828L0 42.6112L6.78957 48.7573V48.631H10.7106L7.04817 44.9445L48.7418 40.9033L64.534 7.46055L80.3263 40.9033L122.02 44.9445L117.57 48.631H122.417L129.068 42.6112L82.3108 38.0828Z" fill="#C0A965"/>
<path d="M158.041 64.4713H150.879V47.0614H158.041V64.4713Z" fill="#EBE5D4"/>
<path d="M159.727 47.0614H176.607V52.979H171.748V64.4713H164.586V52.979H159.727V47.0614Z" fill="#EBE5D4"/>
<path d="M186.04 62.3605H181.789L181.235 64.4713H174.121L180.568 47.0614H187.706L194.153 64.4713H186.558L186.04 62.3605ZM183.942 54.3261L182.919 58.0967H184.982L184.032 54.3261H183.936H183.942Z" fill="#EBE5D4"/>
<path d="M202.248 58.5538H207.637V64.4713H195.086V47.0614H202.248V58.5538Z" fill="#EBE5D4"/>
<path d="M216.471 64.4713H209.309V47.0614H216.471V64.4713Z" fill="#EBE5D4"/>
<path d="M229.333 62.3605H225.082L224.528 64.4713H217.414L223.861 47.0614H230.999L237.446 64.4713H229.851L229.333 62.3605ZM227.235 54.3261L226.212 58.0967H228.281L227.331 54.3261H227.235Z" fill="#EBE5D4"/>
<path d="M249.115 54.1757L249.163 54.1517V47.0614H255.797V64.4713H249.398L245.068 57.1345L245.02 57.1586V64.4713H238.387V47.0614H244.876L249.115 54.1757Z" fill="#EBE5D4"/>
<path d="M277.927 52.979H272.034V54.1517H276.989V59.2814H272.034V64.4713H264.871V47.0614H277.927V52.979Z" fill="#EBE5D4"/>
<path d="M283.686 47.9634C285.171 47.1756 286.807 46.7787 288.599 46.7787C290.391 46.7787 292.033 47.1756 293.518 47.9634C295.004 48.7572 296.176 49.8337 297.036 51.2109C297.896 52.582 298.323 54.1035 298.323 55.7693C298.323 57.4351 297.89 58.9566 297.03 60.3278C296.17 61.6989 294.998 62.7814 293.512 63.5752C292.027 64.363 290.391 64.7599 288.599 64.7599C286.807 64.7599 285.171 64.363 283.686 63.5752C282.2 62.7814 281.034 61.7049 280.174 60.3278C279.314 58.9506 278.887 57.4351 278.887 55.7693C278.887 54.1035 279.314 52.582 280.174 51.2109C281.034 49.8397 282.2 48.7572 283.686 47.9634ZM287.276 58.2229C287.685 58.4635 288.124 58.5838 288.605 58.5838C289.086 58.5838 289.531 58.4635 289.94 58.2229C290.343 57.9824 290.662 57.6576 290.902 57.2427C291.143 56.8277 291.263 56.3767 291.263 55.8896C291.263 55.4025 291.143 54.9514 290.902 54.5365C290.662 54.1215 290.343 53.7908 289.934 53.5502C289.525 53.3097 289.086 53.1834 288.605 53.1834C288.124 53.1834 287.685 53.3037 287.276 53.5502C286.867 53.7908 286.548 54.1215 286.314 54.5305C286.079 54.9394 285.959 55.3904 285.959 55.8836C285.959 56.3767 286.073 56.8277 286.314 57.2367C286.548 57.6456 286.867 57.9704 287.276 58.2109V58.2229Z" fill="#EBE5D4"/>
<path d="M310.942 47.5365C312.235 47.8552 313.323 48.4265 314.195 49.2564C315.067 50.0863 315.506 51.2229 315.506 52.6602C315.506 54.5305 314.827 55.9678 313.462 56.9661C313.726 57.4291 314.093 57.79 314.568 58.0606C315.037 58.3252 315.615 58.4575 316.306 58.4575C316.932 58.4575 317.575 58.3493 318.231 58.1388C318.886 57.9283 319.482 57.6276 320.005 57.2367V63.5993C319.439 63.9421 318.736 64.2247 317.894 64.4412C317.046 64.6577 316.186 64.766 315.302 64.766C313.925 64.766 312.668 64.5134 311.525 64.0082C310.383 63.5031 309.426 62.7935 308.657 61.8794C307.881 60.9653 307.34 59.9008 307.039 58.6981H306.979V64.4773H299.816V47.0674H306.835C308.284 47.0674 309.655 47.2237 310.948 47.5425L310.942 47.5365ZM309.138 53.5082C309.138 53.0932 308.987 52.7564 308.693 52.4978C308.398 52.2392 307.971 52.113 307.424 52.113H306.967V54.9094H307.424C307.977 54.9094 308.404 54.7771 308.699 54.5185C308.993 54.2539 309.138 53.9231 309.138 53.5142V53.5082Z" fill="#EBE5D4"/>
<path d="M163.544 74.3038H157.921V75.4885H162.51V79.62H157.921V80.8408H163.887V86.157H150.879V68.7471H163.544V74.2978V74.3038Z" fill="#EBE5D4"/>
<path d="M169.756 80.9731C170.4 81.1295 170.929 81.2077 171.338 81.2077C171.927 81.2077 172.216 81.0152 172.216 80.6303C172.216 80.48 172.168 80.3657 172.078 80.2815C171.981 80.1974 171.849 80.1312 171.669 80.0831L171.091 79.9448C170.231 79.7584 169.425 79.5238 168.668 79.2532C167.91 78.9826 167.236 78.5736 166.641 78.0444C165.619 77.1183 165.102 75.8915 165.102 74.358C165.102 73.1973 165.39 72.175 165.968 71.2849C166.545 70.3949 167.363 69.7033 168.433 69.2102C169.504 68.717 170.755 68.4705 172.198 68.4705C173.322 68.4705 174.495 68.6088 175.704 68.8914C176.913 69.1741 177.911 69.5349 178.693 69.9859V75.6329C177.622 75.0796 176.564 74.6587 175.523 74.376C174.483 74.0934 173.683 73.955 173.118 73.955C172.553 73.955 172.252 74.1415 172.252 74.5083C172.252 74.6466 172.3 74.7669 172.396 74.8571C172.493 74.9473 172.631 75.0135 172.811 75.0616L173.34 75.1879C174.146 75.3623 174.916 75.5728 175.644 75.8253C176.371 76.0779 177.027 76.4387 177.616 76.9138C178.807 77.852 179.402 79.1269 179.402 80.7266C179.402 81.8512 179.114 82.8494 178.536 83.7154C177.959 84.5814 177.117 85.255 176.023 85.7361C174.928 86.2172 173.629 86.4577 172.138 86.4577C170.959 86.4577 169.738 86.3134 168.481 86.0307C167.224 85.7481 166.184 85.3632 165.366 84.8881V78.9585C166.112 79.4757 166.87 79.9027 167.645 80.2395C168.421 80.5762 169.131 80.8228 169.774 80.9792L169.756 80.9731Z" fill="#EBE5D4"/>
<path d="M195.292 71.5315C196.08 72.4997 196.477 73.7445 196.477 75.266C196.477 76.7875 196.11 77.9903 195.376 78.9765C194.643 79.9628 193.662 80.6905 192.424 81.1535C191.185 81.6166 189.796 81.8511 188.256 81.8511H188.034V86.157H180.871V68.7471H187.504C189.218 68.7471 190.746 68.9696 192.087 69.4086C193.428 69.8536 194.498 70.5572 195.286 71.5254L195.292 71.5315ZM190.162 75.5126C190.162 75.0435 189.994 74.6646 189.657 74.37C189.32 74.0753 188.845 73.931 188.238 73.931H188.04V77.0762H188.238C188.857 77.0762 189.333 76.9318 189.663 76.6432C189.994 76.3545 190.162 75.9757 190.162 75.5186V75.5126Z" fill="#EBE5D4"/>
<path d="M209.22 69.2403C210.495 69.565 211.565 70.1544 212.419 71.0143C213.279 71.8683 213.706 73.035 213.706 74.5083C213.706 75.4886 213.501 76.3426 213.093 77.0822C212.684 77.8219 212.112 78.4293 211.379 78.9165L215.372 86.1691H207.728L205.226 80.6845H205.166V86.1691H198.004V68.7592H205.118C206.574 68.7592 207.939 68.9215 209.214 69.2463L209.22 69.2403ZM207.343 75.1999C207.343 74.785 207.193 74.4482 206.898 74.1896C206.604 73.931 206.177 73.8047 205.629 73.8047H205.172V76.6011H205.629C206.183 76.6011 206.61 76.4688 206.904 76.2102C207.199 75.9456 207.343 75.6149 207.343 75.2059V75.1999Z" fill="#EBE5D4"/>
<path d="M228.974 74.3038H223.351V75.4885H227.939V79.62H223.351V80.8408H229.316V86.157H216.309V68.7471H228.974V74.2978V74.3038Z" fill="#EBE5D4"/>
<path d="M235.186 80.9731C235.829 81.1295 236.359 81.2077 236.768 81.2077C237.357 81.2077 237.646 81.0152 237.646 80.6303C237.646 80.48 237.597 80.3657 237.507 80.2815C237.411 80.1974 237.279 80.1312 237.098 80.0831L236.521 79.9448C235.661 79.7584 234.855 79.5238 234.097 79.2532C233.34 78.9766 232.666 78.5736 232.071 78.0444C231.048 77.1183 230.531 75.8915 230.531 74.358C230.531 73.1973 230.82 72.175 231.391 71.2849C231.969 70.3949 232.786 69.7033 233.857 69.2102C234.927 68.717 236.178 68.4705 237.622 68.4705C238.746 68.4705 239.919 68.6088 241.128 68.8914C242.336 69.1741 243.335 69.5349 244.116 69.9859V75.6329C243.046 75.0796 241.988 74.6587 240.947 74.376C239.907 74.0934 239.101 73.955 238.542 73.955C237.982 73.955 237.67 74.1415 237.67 74.5083C237.67 74.6466 237.718 74.7669 237.814 74.8571C237.91 74.9473 238.049 75.0135 238.229 75.0616L238.758 75.1879C239.564 75.3623 240.334 75.5728 241.061 75.8253C241.789 76.0779 242.445 76.4387 243.034 76.9138C244.225 77.852 244.82 79.1269 244.82 80.7266C244.82 81.8512 244.531 82.8494 243.954 83.7154C243.377 84.5814 242.535 85.255 241.44 85.7361C240.346 86.2172 239.047 86.4577 237.555 86.4577C236.371 86.4577 235.156 86.3134 233.899 86.0307C232.642 85.7481 231.602 85.3632 230.784 84.8881V78.9585C231.53 79.4757 232.287 79.9027 233.063 80.2395C233.839 80.5762 234.548 80.8228 235.192 80.9792L235.186 80.9731Z" fill="#EBE5D4"/>
<path d="M250.498 80.9731C251.142 81.1295 251.671 81.2077 252.08 81.2077C252.669 81.2077 252.958 81.0152 252.958 80.6303C252.958 80.48 252.91 80.3657 252.82 80.2815C252.724 80.1974 252.591 80.1312 252.411 80.0831L251.834 79.9448C250.974 79.7584 250.168 79.5238 249.41 79.2532C248.652 78.9766 247.979 78.5736 247.383 78.0444C246.361 77.1183 245.844 75.8915 245.844 74.358C245.844 73.1973 246.132 72.175 246.704 71.2849C247.281 70.3949 248.099 69.7033 249.169 69.2102C250.24 68.717 251.491 68.4705 252.934 68.4705C254.059 68.4705 255.231 68.6088 256.44 68.8914C257.649 69.1741 258.647 69.5349 259.429 69.9859V75.6329C258.358 75.0796 257.3 74.6587 256.26 74.376C255.219 74.0934 254.413 73.955 253.854 73.955C253.295 73.955 252.982 74.1415 252.982 74.5083C252.982 74.6466 253.03 74.7669 253.126 74.8571C253.223 74.9473 253.361 75.0135 253.541 75.0616L254.071 75.1879C254.876 75.3623 255.646 75.5728 256.374 75.8253C257.102 76.0779 257.757 76.4387 258.346 76.9138C259.537 77.852 260.133 79.1269 260.133 80.7266C260.133 81.8512 259.844 82.8494 259.267 83.7154C258.689 84.5814 257.847 85.255 256.753 85.7361C255.658 86.2172 254.359 86.4577 252.868 86.4577C251.683 86.4577 250.468 86.3134 249.211 86.0307C247.955 85.7481 246.914 85.3632 246.096 84.8881V78.9585C246.842 79.4757 247.6 79.9027 248.376 80.2395C249.151 80.5762 249.861 80.8228 250.504 80.9792L250.498 80.9731Z" fill="#EBE5D4"/>
<path d="M265.791 69.6552C267.277 68.8614 268.912 68.4705 270.704 68.4705C272.497 68.4705 274.138 68.8674 275.624 69.6552C277.109 70.443 278.282 71.5255 279.142 72.9026C280.002 74.2738 280.429 75.7953 280.429 77.4611C280.429 79.1269 279.996 80.6484 279.136 82.0195C278.276 83.3907 277.103 84.4732 275.618 85.267C274.132 86.0548 272.497 86.4517 270.704 86.4517C268.912 86.4517 267.277 86.0548 265.791 85.267C264.306 84.4792 263.139 83.3967 262.279 82.0195C261.419 80.6484 260.992 79.1269 260.992 77.4611C260.992 75.7953 261.419 74.2738 262.279 72.9026C263.139 71.5315 264.306 70.449 265.791 69.6552ZM269.375 79.9087C269.784 80.1492 270.223 80.2695 270.704 80.2695C271.186 80.2695 271.631 80.1492 272.04 79.9087C272.442 79.6681 272.761 79.3434 273.002 78.9284C273.242 78.5135 273.363 78.0625 273.363 77.5753C273.363 77.0882 273.242 76.6372 273.002 76.2222C272.761 75.8073 272.442 75.4765 272.034 75.236C271.625 74.9954 271.186 74.8751 270.704 74.8751C270.223 74.8751 269.784 74.9954 269.375 75.236C268.966 75.4765 268.648 75.8073 268.413 76.2162C268.179 76.6252 268.058 77.0762 268.058 77.5693C268.058 78.0625 268.173 78.5135 268.413 78.9224C268.648 79.3314 268.966 79.6561 269.375 79.8967V79.9087Z" fill="#EBE5D4"/>
<path d="M282.648 84.6415C282.353 84.1063 282.203 83.5109 282.203 82.8614C282.203 82.2119 282.353 81.6166 282.648 81.0813C282.943 80.5461 283.358 80.1251 283.881 79.8124C284.404 79.5057 284.994 79.3494 285.643 79.3494C286.293 79.3494 286.876 79.5057 287.399 79.8124C287.922 80.1191 288.331 80.5461 288.626 81.0813C288.921 81.6166 289.071 82.2119 289.071 82.8614C289.071 83.5109 288.921 84.1063 288.626 84.6415C288.331 85.1767 287.916 85.5977 287.399 85.9104C286.882 86.2171 286.293 86.3735 285.643 86.3735C284.994 86.3735 284.404 86.2171 283.881 85.9104C283.358 85.6037 282.943 85.1767 282.648 84.6415Z" fill="#EBE5D4"/>
<path d="M289.07 69.6011H292.294V70.864H291.422V72.8065H289.942V70.864H289.07V69.6011ZM294.453 70.2927L294.916 69.5951H296.305V72.8004H294.832V71.6759H294.807L294.435 72.2712L294.002 71.6759H293.978V72.8004H292.558V69.5951H293.941L294.441 70.2927H294.453Z" fill="#EBE5D4"/>
</g>
<defs>
<clipPath id="clip0_485_449">
<rect width="320" height="119.139" fill="white" transform="translate(0 0.43042)"/>
</clipPath>
</defs>
</svg>
