<svg width="49" height="49" viewBox="0 0 49 49" fill="none" xmlns="http://www.w3.org/2000/svg">
<circle cx="24.5" cy="24.3056" r="23.5" stroke="#EBE5D4"/>
<path d="M33.8256 17.3662C33.7552 17.2819 33.6672 17.2142 33.5677 17.1677C33.4683 17.1212 33.3598 17.0971 33.25 17.0971H18.1263L17.6678 14.579C17.605 14.2334 17.4229 13.9207 17.1533 13.6956C16.8836 13.4705 16.5435 13.3472 16.1922 13.3471H14.5C14.3011 13.3471 14.1103 13.4261 13.9697 13.5668C13.829 13.7074 13.75 13.8982 13.75 14.0971C13.75 14.296 13.829 14.4868 13.9697 14.6274C14.1103 14.7681 14.3011 14.8471 14.5 14.8471H16.1875L18.5838 27.9993C18.6543 28.3893 18.8267 28.7538 19.0834 29.0559C18.7291 29.3868 18.4734 29.8094 18.3446 30.2769C18.2157 30.7443 18.2189 31.2383 18.3537 31.704C18.4885 32.1697 18.7497 32.589 19.1082 32.9154C19.4668 33.2418 19.9087 33.4625 20.385 33.553C20.8613 33.6436 21.3534 33.6004 21.8067 33.4284C22.26 33.2563 22.6568 32.9621 22.9531 32.5783C23.2494 32.1945 23.4336 31.7362 23.4853 31.2541C23.537 30.772 23.4541 30.285 23.2459 29.8471H27.5041C27.3363 30.1984 27.2495 30.5828 27.25 30.9721C27.25 31.4913 27.404 31.9988 27.6924 32.4305C27.9808 32.8622 28.3908 33.1986 28.8705 33.3973C29.3501 33.596 29.8779 33.648 30.3871 33.5467C30.8963 33.4454 31.364 33.1954 31.7312 32.8283C32.0983 32.4611 32.3483 31.9934 32.4496 31.4842C32.5508 30.975 32.4989 30.4472 32.3002 29.9676C32.1015 29.4879 31.7651 29.0779 31.3334 28.7895C30.9017 28.5011 30.3942 28.3471 29.875 28.3471H20.7972C20.6215 28.3471 20.4515 28.2854 20.3167 28.1729C20.1818 28.0603 20.0908 27.904 20.0594 27.7312L19.7622 26.0971H30.6372C31.1641 26.097 31.6743 25.912 32.0788 25.5743C32.4833 25.2367 32.7564 24.7677 32.8506 24.2493L33.9906 17.9812C34.0099 17.8728 34.0051 17.7616 33.9766 17.6553C33.9481 17.549 33.8966 17.4503 33.8256 17.3662ZM29.875 29.8471C30.0975 29.8471 30.315 29.9131 30.5 30.0367C30.685 30.1603 30.8292 30.336 30.9144 30.5416C30.9995 30.7472 31.0218 30.9734 30.9784 31.1916C30.935 31.4098 30.8278 31.6103 30.6705 31.7676C30.5132 31.9249 30.3127 32.0321 30.0945 32.0755C29.8762 32.1189 29.65 32.0966 29.4445 32.0115C29.2389 31.9263 29.0632 31.7821 28.9396 31.5971C28.816 31.4121 28.75 31.1946 28.75 30.9721C28.75 30.6737 28.8685 30.3876 29.0795 30.1766C29.2905 29.9656 29.5766 29.8471 29.875 29.8471ZM20.875 29.8471C21.0975 29.8471 21.315 29.9131 21.5 30.0367C21.685 30.1603 21.8292 30.336 21.9144 30.5416C21.9995 30.7472 22.0218 30.9734 21.9784 31.1916C21.935 31.4098 21.8278 31.6103 21.6705 31.7676C21.5132 31.9249 21.3127 32.0321 21.0945 32.0755C20.8762 32.1189 20.65 32.0966 20.4445 32.0115C20.2389 31.9263 20.0632 31.7821 19.9396 31.5971C19.816 31.4121 19.75 31.1946 19.75 30.9721C19.75 30.6737 19.8685 30.3876 20.0795 30.1766C20.2905 29.9656 20.5766 29.8471 20.875 29.8471Z" fill="#EBE5D4"/>
</svg>
