<svg width="49" height="49" viewBox="0 0 49 49" fill="none" xmlns="http://www.w3.org/2000/svg">
<g id="Group 199">
<path id="Exclude" fill-rule="evenodd" clip-rule="evenodd" d="M31.7511 35.0133H17.9863C16.0842 35.0133 14.5303 33.4593 14.5303 31.5572V17.7924C14.5303 15.8903 16.0842 14.3364 17.9863 14.3364H31.7511C33.6532 14.3364 35.2072 15.8903 35.2072 17.7924V31.5572C35.2072 33.4678 33.6617 35.0133 31.7511 35.0133ZM24.873 29.9865C23.4549 29.9865 22.1218 29.4345 21.1198 28.4325C20.1178 27.4305 19.5658 26.0973 19.5658 24.6792C19.5658 23.2612 20.1178 21.928 21.1198 20.926C22.1218 19.924 23.4549 19.372 24.873 19.372C26.2911 19.372 27.6243 19.924 28.6263 20.926C29.6283 21.928 30.1802 23.2612 30.1802 24.6792C30.1802 26.0973 29.6283 27.4305 28.6263 28.4325C27.6158 29.4345 26.2911 29.9865 24.873 29.9865ZM24.873 20.5014C22.5718 20.5014 20.6952 22.3695 20.6952 24.6792C20.6952 26.9805 22.5633 28.8571 24.873 28.8571C27.1742 28.8571 29.0509 26.989 29.0509 24.6792C29.0424 22.378 27.1742 20.5014 24.873 20.5014ZM32.2336 18.1785C32.2336 18.7413 31.7774 19.1976 31.2146 19.1976C30.6518 19.1976 30.1956 18.7413 30.1956 18.1785C30.1956 17.6158 30.6518 17.1595 31.2146 17.1595C31.7774 17.1595 32.2336 17.6158 32.2336 18.1785Z" fill="#EBE5D4"/>
<circle id="Ellipse 3" cx="24.5" cy="24.3056" r="23.5" stroke="#EBE5D4"/>
</g>
</svg>
