<svg width="49" height="49" viewBox="0 0 49 49" fill="none" xmlns="http://www.w3.org/2000/svg">
<circle cx="24.5" cy="24.3057" r="23.5" stroke="#EBE5D4"/>
<path d="M24.9287 12.3057C22.4289 12.3085 20.0323 13.3028 18.2647 15.0704C16.4971 16.838 15.5028 19.2346 15.5 21.7343C15.5 29.8023 24.0715 35.8955 24.4369 36.1505C24.581 36.2515 24.7527 36.3057 24.9287 36.3057C25.1046 36.3057 25.2763 36.2515 25.4205 36.1505C25.7858 35.8955 34.3573 29.8023 34.3573 21.7343C34.3545 19.2346 33.3602 16.838 31.5926 15.0704C29.825 13.3028 27.4284 12.3085 24.9287 12.3057ZM24.9287 18.3057C25.6068 18.3057 26.2697 18.5068 26.8335 18.8835C27.3973 19.2603 27.8368 19.7958 28.0963 20.4223C28.3558 21.0488 28.4237 21.7381 28.2914 22.4032C28.1591 23.0683 27.8326 23.6792 27.3531 24.1587C26.8736 24.6382 26.2626 24.9648 25.5976 25.0971C24.9325 25.2294 24.2431 25.1615 23.6166 24.9019C22.9901 24.6424 22.4546 24.203 22.0779 23.6392C21.7011 23.0753 21.5001 22.4124 21.5001 21.7343C21.5001 20.825 21.8613 19.9529 22.5043 19.3099C23.1473 18.667 24.0193 18.3057 24.9287 18.3057Z" fill="#EBE5D4"/>
</svg>
