<svg width="108" height="100" viewBox="0 0 108 100" fill="none" xmlns="http://www.w3.org/2000/svg">
<g clip-path="url(#clip0_954_901)">
<path d="M101.565 41.4336H6.65503V68.9991H101.565V41.4336Z" fill="black"/>
<path d="M98.38 40.4606L102.1 37.366L67.215 33.9755L54 5.89844L40.785 33.9755L5.90002 37.361L8.96002 40.4606H98.38Z" fill="#CB1517"/>
<path d="M29.79 69.9771L24.27 94.9294L54 77.4602L83.73 94.9294L78.145 69.9771H29.79Z" fill="#CB1517"/>
<path fill-rule="evenodd" clip-rule="evenodd" d="M15.0451 63.0205C15.8551 63.0757 16.4251 62.5039 16.7701 61.8218C17.1251 61.1296 17.3101 60.2118 17.3101 59.3391C17.3101 57.7542 16.5601 56.2395 15.0551 56.3047L14.7751 56.3197V63.0004L15.0451 63.0205ZM17.9801 46.6447C18.9451 47.6579 19.4901 49.2578 19.4901 50.9079C19.4901 52.6634 18.9901 53.9574 17.9151 54.9154L17.6701 55.136L17.9501 55.3166C19.0951 56.0439 19.7351 58.0701 19.7351 59.8055C19.7351 63.6625 17.1051 65.2374 14.4801 65.2374H12.3101V45.5112H14.3951C15.5701 45.5112 17.0901 45.7018 17.9801 46.6547M14.7751 53.8822H15.0701C16.5001 53.8822 17.1851 52.528 17.1851 50.9882C17.1851 50.2208 17.0201 49.4083 16.6851 48.7864C16.3551 48.1745 15.8201 47.6629 15.0451 47.713L14.7751 47.7331V53.8872V53.8822ZM26.8301 45.1802C29.2551 45.1802 31.9601 47.7481 31.9601 55.3668C31.9601 62.9854 29.2501 65.5533 26.8301 65.5533C24.4101 65.5533 21.6951 62.9854 21.6951 55.3668C21.6951 47.7481 24.4051 45.1802 26.8301 45.1802ZM28.2901 61.7164C28.6101 61.1397 28.8251 60.3723 28.9701 59.5748C29.2651 57.9799 29.3001 56.1793 29.3001 55.3668C29.3001 54.4589 29.2651 52.6433 28.9701 51.0584C28.8251 50.2659 28.6101 49.5036 28.2901 48.9368C27.9751 48.3751 27.5101 47.9237 26.8351 47.9237C26.1601 47.9237 25.6901 48.3801 25.3751 48.9368C25.0601 49.5036 24.8451 50.2659 24.6951 51.0584C24.4051 52.6433 24.3651 54.4589 24.3651 55.3668C24.3651 56.1793 24.4051 57.9799 24.6951 59.5748C24.8401 60.3723 25.0551 61.1397 25.3751 61.7164C25.6851 62.2832 26.1501 62.7496 26.8351 62.7496C27.5201 62.7496 27.9801 62.2832 28.2901 61.7164ZM40.0701 52.207C40.0701 50.1004 39.4401 49.0271 38.7251 48.4904C38.3751 48.2246 38.0201 48.1042 37.7451 48.0491C37.5901 48.019 37.3701 48.019 37.2051 48.024L37.0001 48.034V56.6357L37.2601 56.5905C37.4401 56.5605 37.6651 56.5153 37.8051 56.4551C38.0651 56.3498 38.4051 56.1743 38.7501 55.8683C39.4301 55.2514 40.0701 54.148 40.0701 52.2019M42.6401 52.4226C42.6401 54.5843 41.6201 56.6558 39.8351 57.9347L39.4201 58.1955L43.2301 65.2273H40.2301L37.4151 59.4695L37.0001 59.5447V59.9058V65.2223H34.5351V45.4962H36.7551C39.2601 45.4962 42.6401 47.0209 42.6401 52.4176M52.4201 48.1042C52.0001 47.9287 51.4901 47.7682 51.0601 47.7682C50.4451 47.7682 50.0101 47.9187 49.6601 48.1494C49.4951 48.2597 49.3501 48.3851 49.2251 48.5105C49.1001 48.6309 48.9901 48.7563 48.8751 48.8816C47.6651 50.1406 47.2951 53.8521 47.2951 55.3668C47.2951 56.425 47.4051 58.1855 47.8501 59.6952C48.2801 61.1497 49.0951 62.5791 50.6501 62.5791H50.9451V54.4589H53.4051V65.2323H51.1451C45.9451 65.2323 44.6301 60.0162 44.6301 55.4771C44.6301 50.7324 46.2351 45.3256 50.2751 45.1852C50.8501 45.1651 51.3401 45.2153 51.6801 45.2705L52.0401 45.3357L52.5851 48.1795L52.4151 48.1093L52.4201 48.1042ZM62.7201 45.5012H65.1851V65.2273H62.7201V56.3598H59.0351V65.2273H56.5751V45.5012H59.0351V53.847H62.7201V45.5012ZM70.5351 53.847H73.2601V56.3849H70.5351V62.6945H73.6701V65.2323H68.0751V45.5062H73.6301V48.039H70.5401V53.847H70.5351ZM80.3101 65.2273H77.8451V48.034H75.4501V45.4962H82.7301V48.034H80.3101V65.2273ZM88.9151 65.2273H86.4501V48.034H84.0551V45.4962H91.3301V48.034H88.9101V65.2273H88.9151ZM93.4451 45.5012H95.9101V65.2273H93.4451V45.5012Z" fill="#EBE5D4"/>
<path d="M38.725 48.4904C38.375 48.2246 38.02 48.1042 37.745 48.049C37.59 48.019 37.37 48.019 37.205 48.024L37 48.034V56.6357L37.26 56.5905C37.44 56.5604 37.665 56.5153 37.805 56.4551C38.065 56.3498 38.405 56.1742 38.75 55.8683C39.43 55.2514 40.07 54.148 40.07 52.2019C40.07 50.0954 39.44 49.0221 38.725 48.4854V48.4904ZM38.46 55.5423C38.215 55.763 37.94 55.9335 37.645 56.0488C37.6 56.0689 37.53 56.084 37.435 56.109V48.4553C37.515 48.4553 37.595 48.4553 37.66 48.4754C37.86 48.5155 38.165 48.6108 38.465 48.8365C39.23 49.4133 39.635 50.5769 39.635 52.2019C39.635 53.7116 39.24 54.8351 38.455 55.5423H38.46Z" fill="#C0A969"/>
<path d="M18.375 55.0755C19.415 54.0573 19.92 52.6931 19.92 50.9026C19.92 49.112 19.31 47.4067 18.295 46.3434C17.5 45.4958 16.185 45.0645 14.395 45.0645H11.88V65.6633H14.485C17.11 65.6633 20.17 64.1286 20.17 59.7951C20.17 58.145 19.605 56.0184 18.375 55.0755ZM14.48 65.227H12.31V45.5008H14.395C15.57 45.5008 17.09 45.6914 17.98 46.6444C18.945 47.6575 19.49 49.2575 19.49 50.9076C19.49 52.663 18.99 53.957 17.915 54.915L17.67 55.1357L17.95 55.3162C19.095 56.0435 19.735 58.0698 19.735 59.8051C19.735 63.6621 17.11 65.237 14.48 65.237V65.227Z" fill="#C0A969"/>
<path d="M83.625 48.47H86.02V65.6633H89.35V48.47H91.77V45.0645H83.625V48.47ZM84.06 45.5008H91.335V48.0387H88.915V65.232H86.45V48.0387H84.055V45.5008H84.06Z" fill="#C0A969"/>
<path d="M26.83 44.7437C24.135 44.7437 21.26 47.5323 21.26 55.3666C21.26 63.1959 24.135 65.9895 26.83 65.9895C29.52 65.9895 32.395 63.2009 32.395 55.3666C32.395 47.5373 29.52 44.7437 26.83 44.7437ZM26.83 65.5532C24.4 65.5532 21.695 62.9852 21.695 55.3666C21.695 47.748 24.405 45.18 26.83 45.18C29.255 45.18 31.96 47.748 31.96 55.3666C31.96 62.9852 29.25 65.5532 26.83 65.5532Z" fill="#C0A969"/>
<path d="M28.29 48.9365C27.975 48.3747 27.51 47.9233 26.835 47.9233C26.16 47.9233 25.69 48.3798 25.375 48.9365C25.06 49.5032 24.845 50.2656 24.695 51.0581C24.405 52.643 24.365 54.4586 24.365 55.3664C24.365 56.1789 24.405 57.9795 24.695 59.5745C24.84 60.3719 25.055 61.1393 25.375 61.7161C25.685 62.2829 26.15 62.7493 26.835 62.7493C27.52 62.7493 27.98 62.2829 28.29 61.7161C28.61 61.1393 28.825 60.3719 28.97 59.5745C29.265 57.9795 29.3 56.1789 29.3 55.3664C29.3 54.4586 29.265 52.643 28.97 51.0581C28.825 50.2656 28.61 49.5032 28.29 48.9365ZM28.54 59.4942C28.38 60.3619 28.17 61.039 27.91 61.5054C27.465 62.3129 26.99 62.3129 26.835 62.3129C26.405 62.3129 26.055 62.0471 25.755 61.5054C25.495 61.029 25.28 60.3519 25.125 59.4942C24.835 57.8942 24.805 56.0736 24.805 55.3664C24.805 54.4436 24.845 52.668 25.125 51.1383C25.28 50.2857 25.495 49.6186 25.755 49.1521C26.055 48.6205 26.41 48.3597 26.84 48.3597C27.27 48.3597 27.62 48.6205 27.92 49.1521C28.18 49.6136 28.39 50.2806 28.55 51.1383C28.815 52.5778 28.87 54.2329 28.87 55.3664C28.87 56.2542 28.83 57.9745 28.55 59.4942H28.54Z" fill="#C0A969"/>
<path d="M15.055 56.3043L14.775 56.3193V63L15.045 63.0201C15.855 63.0753 16.425 62.4985 16.77 61.8214C17.125 61.1292 17.31 60.2114 17.31 59.3387C17.31 57.7538 16.56 56.2391 15.055 56.3043ZM16.385 61.6208C16.165 62.0471 15.785 62.5536 15.205 62.5837V56.7406C16.35 56.7858 16.875 58.1099 16.875 59.3437C16.875 60.1813 16.695 61.0139 16.385 61.6258V61.6208Z" fill="#C0A969"/>
<path d="M93.01 45.0645V65.6633H96.34V45.0645H93.01ZM95.905 65.227H93.44V45.5008H95.905V65.227Z" fill="#C0A969"/>
<path d="M75.015 48.47H77.41V65.6633H80.74V48.47H83.16V45.0645H75.015V48.47ZM75.45 45.5008H82.73V48.0387H80.31V65.232H77.845V48.0387H75.45V45.5008Z" fill="#C0A969"/>
<path d="M17.185 50.988C17.185 50.2207 17.02 49.4081 16.685 48.7862C16.355 48.1743 15.82 47.6627 15.045 47.7129L14.775 47.7329V53.887H15.07C16.5 53.887 17.185 52.5328 17.185 50.993V50.988ZM15.205 48.1442C15.75 48.1693 16.1 48.6157 16.3 48.9868C16.585 49.5185 16.75 50.2507 16.75 50.983C16.75 52.0764 16.34 53.3403 15.205 53.4356V48.1392V48.1442Z" fill="#C0A969"/>
<path d="M50.5099 62.1374C49.5049 62.0622 48.7499 61.1995 48.2699 59.5695C47.7699 57.8893 47.7349 55.9282 47.7349 55.3664C47.7349 53.9069 48.0999 50.3158 49.1949 49.1823L49.3149 49.0519C49.3849 48.9766 49.4549 48.9014 49.5349 48.8212C49.6649 48.6908 49.7849 48.5904 49.8999 48.5152C50.2199 48.3046 50.5849 48.2093 51.0599 48.2093C51.3649 48.2093 51.7899 48.3146 52.2549 48.5102L53.1699 48.8914L52.4149 44.9642L51.7499 44.8438C51.3549 44.7836 50.9449 44.7485 50.5299 44.7485C50.4399 44.7485 50.3499 44.7485 50.2599 44.7485C46.0699 44.894 44.1949 50.2406 44.1949 55.4768C44.1949 61.9519 46.7299 65.6684 51.1449 65.6684H53.8399V54.0223H50.5099V62.1374ZM50.9449 62.5738V54.4486H53.4049V65.222H51.1449C45.9449 65.222 44.6299 60.0058 44.6299 55.4668C44.6299 50.722 46.2349 45.3153 50.2749 45.1749C50.8499 45.1548 51.3399 45.2049 51.6799 45.2601L52.0399 45.3253L52.5849 48.1691L52.4149 48.0989C51.9949 47.9234 51.4849 47.7629 51.0549 47.7629C50.4399 47.7629 50.0049 47.9133 49.6549 48.1441C49.4899 48.2544 49.3449 48.3798 49.2199 48.5052C49.0949 48.6256 48.9849 48.7509 48.8699 48.8763C47.6599 50.1352 47.2899 53.8467 47.2899 55.3614C47.2899 56.4197 47.3999 58.1802 47.8449 59.6898C48.2749 61.1444 49.0899 62.5738 50.6449 62.5738H50.9399H50.9449Z" fill="#C0A969"/>
<path d="M70.97 56.8159H73.695V53.4103H70.97V48.47H74.06V45.0645H67.635V65.6633H74.1V62.2578H70.965V56.8159H70.97ZM73.67 62.6941V65.232H68.075V45.5058H73.63V48.0387H70.54V53.8467H73.265V56.3845H70.54V62.6941H73.675H73.67Z" fill="#C0A969"/>
<path d="M62.285 53.4103H59.47V45.0645H56.14V65.6633H59.47V56.7958H62.285V65.6633H65.615V45.0645H62.285V53.4103ZM62.72 45.5008H65.185V65.227H62.72V56.3595H59.035V65.227H56.575V45.5008H59.035V53.8467H62.72V45.5008Z" fill="#C0A969"/>
<path d="M40.085 58.2905C41.955 56.9513 43.075 54.7545 43.075 52.4223C43.075 46.9904 39.67 45.0645 36.755 45.0645H34.105V65.6633H37.435V60.5023L39.955 65.6633H43.955L39.99 58.3456L40.085 58.2854V58.2905ZM43.23 65.227H40.23L37.415 59.4691L37 59.5443V59.9055V65.2219H34.54V45.4958H36.76C39.265 45.4958 42.645 47.0205 42.645 52.4172C42.645 54.5789 41.625 56.6504 39.84 57.9293L39.425 58.1901L43.235 65.2219L43.23 65.227Z" fill="#C0A969"/>
<path d="M5.68005 40.4604V69.982H102.535V40.4604H5.68005ZM101.56 69.0039H6.65505V41.4385H101.565V69.0039H101.56Z" fill="#C0A969"/>
<path d="M78.145 69.9771L83.73 94.9294L54 77.4602L24.27 94.9294L29.79 69.9771H27.07L20.615 100L54 80.3793L87.39 100L80.93 69.9771H78.145Z" fill="#C0A969"/>
<path d="M68.875 31.603L53.995 0L39.125 31.603L0 35.4048L5.68 40.5607V40.4604H8.96L5.9 37.3608L40.785 33.9753L54 5.89828L67.215 33.9753L102.1 37.3658L98.38 40.4604H102.435L108 35.4048L68.875 31.603Z" fill="#C0A969"/>
</g>
<defs>
<clipPath id="clip0_954_901">
<rect width="108" height="100" fill="white"/>
</clipPath>
</defs>
</svg>
