<svg width="983" height="512" viewBox="0 0 983 512" fill="none" xmlns="http://www.w3.org/2000/svg">
<path d="M160.057 181.979C168.158 185.539 175.522 188.116 182.273 189.712C189.023 191.43 194.547 192.167 198.842 192.167C204.979 192.167 208.048 190.203 208.048 186.153C208.048 184.68 207.557 183.452 206.575 182.47C205.593 181.611 204.12 180.875 202.279 180.384L196.265 178.911C187.182 176.947 178.713 174.615 170.858 171.669C163.003 168.846 155.884 164.673 149.747 159.027C138.946 149.454 133.668 136.566 133.668 120.488C133.668 108.459 136.614 97.7809 142.628 88.4528C148.642 79.1247 157.234 71.8831 168.403 66.7281C179.573 61.5731 192.706 58.9956 207.802 58.9956C219.585 58.9956 231.736 60.4685 244.378 63.4142C257.021 66.3599 267.453 70.1648 275.677 74.8288V133.866C264.385 128.097 253.338 123.679 242.537 120.733C231.614 117.787 223.267 116.314 217.376 116.314C211.239 116.314 208.293 118.278 208.293 122.083C208.293 123.556 208.784 124.783 209.766 125.765C210.748 126.747 212.221 127.361 214.185 127.852L219.708 129.202C228.054 131.043 236.155 133.252 243.765 135.953C251.375 138.653 258.248 142.335 264.385 147.245C276.781 157.064 283.041 170.442 283.041 187.135C283.041 198.917 279.973 209.35 273.958 218.433C267.821 227.515 259.107 234.512 247.692 239.544C236.155 244.576 222.654 247.031 207.066 247.031C194.669 247.031 181.905 245.558 168.772 242.612C155.639 239.667 144.838 235.616 136.246 230.584V168.601C143.978 174.001 151.956 178.543 160.057 181.979ZM366.081 61.9413V120.733H401.798V61.9413H476.791V243.962H401.798V182.593H366.081V243.962H291.211V61.9413H366.081ZM804.655 68.9374C818.647 73.6015 829.816 80.9658 838.162 91.0303C846.386 101.218 850.559 114.228 850.559 130.061C850.559 145.649 846.631 158.536 839.022 168.846C831.412 179.157 821.102 186.766 808.214 191.676C795.204 196.585 780.721 198.917 764.642 198.917H762.31V243.962H687.44V61.9413H756.787C774.707 61.9413 790.663 64.2733 804.655 68.9374ZM779.248 144.422C782.685 141.476 784.526 137.548 784.526 132.639C784.526 127.729 782.685 123.801 779.248 120.733C775.689 117.665 770.779 116.069 764.397 116.069H762.31V148.963H764.397C770.779 148.963 775.811 147.49 779.248 144.422ZM18.0488 356.391C27.0087 342.03 39.2825 330.738 54.7476 322.392C70.2126 314.169 87.396 309.996 106.175 309.996C124.831 309.996 142.015 314.169 157.602 322.392C173.067 330.738 185.341 342.03 194.301 356.391C203.261 370.751 207.802 386.584 207.802 404.013C207.802 421.442 203.261 437.398 194.301 451.758C185.219 466.119 172.945 477.411 157.48 485.634C142.015 493.98 124.831 498.031 106.175 498.031C87.396 498.031 70.2126 493.98 54.7476 485.634C39.2825 477.411 27.0087 466.119 18.0488 451.758C9.08887 437.398 4.67029 421.442 4.67029 404.013C4.67029 386.584 9.08887 370.751 18.0488 356.391ZM82.241 419.478C84.6957 423.774 88.0097 427.211 92.3055 429.666C96.4786 432.12 101.143 433.348 106.175 433.348C111.207 433.348 115.871 432.12 120.044 429.666C124.218 427.211 127.654 423.774 130.109 419.356C132.564 415.06 133.914 410.396 133.914 405.241C133.914 400.208 132.564 395.544 130.109 391.126C127.654 386.83 124.218 383.393 120.044 380.816C115.749 378.361 111.085 377.011 106.175 377.011C101.143 377.011 96.4786 378.361 92.3055 380.816C88.0097 383.393 84.6957 386.83 82.241 391.126C79.7862 395.422 78.5588 400.086 78.5588 405.241C78.5588 410.396 79.7862 415.182 82.241 419.478ZM283.846 312.941L328.155 387.321L328.646 387.075V312.941H397.993V494.962H331.101L285.81 418.251L285.319 418.496V494.962H215.972V312.941H283.846ZM487.538 312.941V433.102H543.875V494.962H412.668V312.941H487.538ZM628.756 312.941V494.962H553.885V312.941H628.756ZM711.428 312.941L755.736 387.321L756.227 387.075V312.941H825.574V494.962H758.682L713.391 418.251L712.9 418.496V494.962H643.553V312.941H711.428ZM972.684 312.941V370.997H913.892V383.393H961.883V426.597H913.892V439.362H976.243V494.962H840.249V312.941H972.684Z" fill="#CB1517"/>
<g clip-path="url(#clip0_804_569)">
<path d="M706.697 109.384H455.884V182.157H706.697V109.384Z" fill="black"/>
<path d="M698.281 106.815L708.111 98.6456L615.923 89.6947L581 15.5713L546.078 89.6947L453.889 98.6324L461.975 106.815H698.281Z" fill="#CB1517"/>
<path d="M517.022 184.739L502.434 250.613L581 204.495L659.566 250.613L644.807 184.739H517.022Z" fill="#CB1517"/>
<path fill-rule="evenodd" clip-rule="evenodd" d="M478.056 166.374C480.197 166.519 481.703 165.01 482.615 163.209C483.553 161.382 484.042 158.959 484.042 156.655C484.042 152.471 482.06 148.472 478.082 148.644L477.342 148.684V166.321L478.056 166.374ZM485.812 123.142C488.362 125.816 489.803 130.04 489.803 134.397C489.803 139.031 488.481 142.447 485.64 144.976L484.993 145.559L485.733 146.036C488.759 147.955 490.45 153.305 490.45 157.886C490.45 168.069 483.5 172.226 476.563 172.226H470.828V120.149H476.338C479.443 120.149 483.46 120.652 485.812 123.168M477.342 142.249H478.122C481.901 142.249 483.711 138.674 483.711 134.609C483.711 132.583 483.275 130.438 482.39 128.796C481.518 127.18 480.104 125.83 478.056 125.962L477.342 126.015V142.262V142.249ZM509.2 119.275C515.608 119.275 522.756 126.055 522.756 146.168C522.756 166.281 515.595 173.061 509.2 173.061C502.804 173.061 495.63 166.281 495.63 146.168C495.63 126.055 502.791 119.275 509.2 119.275ZM513.058 162.931C513.903 161.408 514.472 159.383 514.855 157.277C515.634 153.067 515.727 148.313 515.727 146.168C515.727 143.771 515.634 138.978 514.855 134.794C514.472 132.702 513.903 130.689 513.058 129.193C512.225 127.71 510.997 126.518 509.213 126.518C507.429 126.518 506.187 127.723 505.354 129.193C504.522 130.689 503.954 132.702 503.557 134.794C502.791 138.978 502.685 143.771 502.685 146.168C502.685 148.313 502.791 153.067 503.557 157.277C503.941 159.383 504.509 161.408 505.354 162.931C506.174 164.427 507.403 165.659 509.213 165.659C511.023 165.659 512.239 164.427 513.058 162.931ZM544.188 137.826C544.188 132.265 542.523 129.431 540.634 128.014C539.709 127.313 538.771 126.995 538.044 126.849C537.634 126.77 537.053 126.77 536.617 126.783L536.075 126.81V149.518L536.762 149.399C537.238 149.319 537.833 149.2 538.203 149.041C538.89 148.763 539.788 148.3 540.7 147.492C542.497 145.863 544.188 142.95 544.188 137.813M550.98 138.395C550.98 144.102 548.284 149.571 543.567 152.947L542.47 153.636L552.539 172.2H544.611L537.172 156.999L536.075 157.198V158.151V172.187H529.561V120.11H535.428C542.048 120.11 550.98 124.135 550.98 138.382M576.825 126.995C575.715 126.531 574.367 126.108 573.231 126.108C571.606 126.108 570.456 126.505 569.531 127.114C569.095 127.405 568.712 127.736 568.382 128.067C568.051 128.385 567.76 128.716 567.457 129.047C564.259 132.371 563.281 142.169 563.281 146.168C563.281 148.962 563.572 153.609 564.748 157.595C565.884 161.435 568.038 165.209 572.147 165.209H572.927V143.771H579.428V172.213H573.455C559.714 172.213 556.239 158.442 556.239 146.459C556.239 133.933 560.48 119.659 571.156 119.289C572.676 119.236 573.971 119.368 574.869 119.514L575.821 119.686L577.261 127.194L576.812 127.008L576.825 126.995ZM604.044 120.123H610.558V172.2H604.044V148.79H594.306V172.2H587.805V120.123H594.306V142.156H604.044V120.123ZM624.696 142.156H631.897V148.856H624.696V165.513H632.981V172.213H618.195V120.136H632.875V126.823H624.709V142.156H624.696ZM650.528 172.2H644.014V126.81H637.685V120.11H656.923V126.81H650.528V172.2ZM673.268 172.2H666.754V126.81H660.425V120.11H679.65V126.81H673.255V172.2H673.268ZM685.239 120.123H691.753V172.2H685.239V120.123Z" fill="#EBE5D4"/>
<path d="M540.634 128.015C539.709 127.313 538.771 126.995 538.044 126.85C537.634 126.77 537.053 126.77 536.617 126.783L536.075 126.81V149.518L536.762 149.399C537.238 149.32 537.832 149.201 538.202 149.042C538.889 148.764 539.788 148.3 540.7 147.492C542.497 145.864 544.188 142.951 544.188 137.813C544.188 132.252 542.523 129.418 540.634 128.002V128.015ZM539.933 146.632C539.286 147.214 538.559 147.665 537.78 147.969C537.661 148.022 537.476 148.062 537.225 148.128V127.922C537.436 127.922 537.647 127.922 537.819 127.975C538.348 128.081 539.154 128.333 539.947 128.928C541.968 130.451 543.038 133.523 543.038 137.813C543.038 141.799 541.995 144.765 539.92 146.632H539.933Z" fill="#C0A969"/>
<path d="M486.856 145.4C489.604 142.712 490.939 139.11 490.939 134.383C490.939 129.656 489.327 125.154 486.644 122.347C484.544 120.109 481.068 118.971 476.338 118.971H469.692V173.352H476.576C483.513 173.352 491.599 169.3 491.599 157.86C491.599 153.503 490.106 147.889 486.856 145.4ZM476.563 172.2H470.828V120.123H476.338C479.443 120.123 483.46 120.626 485.812 123.142C488.362 125.816 489.802 130.04 489.802 134.397C489.802 139.031 488.481 142.447 485.64 144.976L484.993 145.559L485.733 146.035C488.759 147.955 490.45 153.305 490.45 157.886C490.45 168.069 483.513 172.226 476.563 172.226V172.2Z" fill="#C0A969"/>
<path d="M659.288 127.961H665.617V173.352H674.417V127.961H680.813V118.971H659.288V127.961ZM660.438 120.123H679.663V126.823H673.268V172.213H666.754V126.823H660.425V120.123H660.438Z" fill="#C0A969"/>
<path d="M509.199 118.124C502.077 118.124 494.48 125.486 494.48 146.168C494.48 166.837 502.077 174.213 509.199 174.213C516.308 174.213 523.906 166.851 523.906 146.168C523.906 125.499 516.308 118.124 509.199 118.124ZM509.199 173.061C502.778 173.061 495.629 166.281 495.629 146.168C495.629 126.055 502.791 119.276 509.199 119.276C515.608 119.276 522.756 126.055 522.756 146.168C522.756 166.281 515.595 173.061 509.199 173.061Z" fill="#C0A969"/>
<path d="M513.058 129.193C512.225 127.71 510.996 126.519 509.213 126.519C507.429 126.519 506.187 127.723 505.354 129.193C504.522 130.689 503.954 132.702 503.557 134.794C502.791 138.978 502.685 143.772 502.685 146.168C502.685 148.313 502.791 153.067 503.557 157.278C503.941 159.383 504.509 161.409 505.354 162.931C506.174 164.428 507.402 165.659 509.213 165.659C511.023 165.659 512.238 164.428 513.058 162.931C513.903 161.409 514.471 159.383 514.855 157.278C515.634 153.067 515.727 148.313 515.727 146.168C515.727 143.772 515.634 138.978 514.855 134.794C514.471 132.702 513.903 130.689 513.058 129.193ZM513.718 157.066C513.296 159.356 512.741 161.144 512.053 162.375C510.877 164.507 509.622 164.507 509.213 164.507C508.076 164.507 507.151 163.805 506.359 162.375C505.671 161.117 505.103 159.33 504.694 157.066C503.927 152.842 503.848 148.035 503.848 146.168C503.848 143.732 503.954 139.045 504.694 135.006C505.103 132.755 505.671 130.994 506.359 129.763C507.151 128.359 508.09 127.671 509.226 127.671C510.362 127.671 511.287 128.359 512.08 129.763C512.767 130.981 513.322 132.742 513.745 135.006C514.445 138.806 514.59 143.176 514.59 146.168C514.59 148.512 514.485 153.054 513.745 157.066H513.718Z" fill="#C0A969"/>
<path d="M478.082 148.644L477.342 148.684V166.321L478.056 166.374C480.196 166.519 481.703 164.997 482.614 163.209C483.553 161.382 484.042 158.959 484.042 156.655C484.042 152.471 482.06 148.472 478.082 148.644ZM481.597 162.68C481.016 163.805 480.011 165.142 478.479 165.222V149.796C481.505 149.915 482.892 153.411 482.892 156.668C482.892 158.879 482.416 161.077 481.597 162.693V162.68Z" fill="#C0A969"/>
<path d="M684.09 118.971V173.352H692.89V118.971H684.09ZM691.74 172.2H685.226V120.123H691.74V172.2Z" fill="#C0A969"/>
<path d="M636.535 127.961H642.864V173.352H651.664V127.961H658.059V118.971H636.535V127.961ZM637.685 120.123H656.923V126.823H650.528V172.213H644.014V126.823H637.685V120.123Z" fill="#C0A969"/>
<path d="M483.711 134.609C483.711 132.583 483.275 130.438 482.39 128.796C481.518 127.18 480.104 125.83 478.056 125.962L477.342 126.015V142.262H478.122C481.901 142.262 483.711 138.687 483.711 134.622V134.609ZM478.479 127.101C479.919 127.167 480.844 128.345 481.372 129.325C482.126 130.729 482.562 132.662 482.562 134.595C482.562 137.482 481.478 140.819 478.479 141.07V127.088V127.101Z" fill="#C0A969"/>
<path d="M571.777 164.043C569.121 163.845 567.126 161.567 565.858 157.264C564.536 152.828 564.444 147.651 564.444 146.168C564.444 142.315 565.408 132.834 568.302 129.842L568.619 129.498C568.804 129.299 568.989 129.1 569.201 128.888C569.544 128.544 569.861 128.279 570.165 128.081C571.011 127.525 571.975 127.273 573.231 127.273C574.037 127.273 575.16 127.551 576.389 128.068L578.807 129.074L576.811 118.706L575.054 118.388C574.01 118.229 572.927 118.137 571.83 118.137C571.592 118.137 571.354 118.137 571.117 118.137C560.044 118.521 555.089 132.636 555.089 146.459C555.089 163.554 561.788 173.365 573.455 173.365H580.577V142.619H571.777V164.043ZM572.927 165.195V143.745H579.428V172.187H573.455C559.714 172.187 556.238 158.416 556.238 146.433C556.238 133.907 560.48 119.633 571.156 119.262C572.676 119.209 573.971 119.342 574.869 119.487L575.82 119.659L577.261 127.167L576.811 126.982C575.702 126.518 574.354 126.095 573.217 126.095C571.592 126.095 570.443 126.492 569.518 127.101C569.082 127.392 568.699 127.723 568.368 128.054C568.038 128.372 567.747 128.703 567.443 129.034C564.246 132.358 563.268 142.156 563.268 146.155C563.268 148.949 563.559 153.596 564.735 157.582C565.871 161.422 568.025 165.195 572.134 165.195H572.914H572.927Z" fill="#C0A969"/>
<path d="M625.846 149.994H633.047V141.004H625.846V127.961H634.011V118.971H617.032V173.352H634.117V164.361H625.832V149.994H625.846ZM632.981 165.513V172.213H618.195V120.136H632.875V126.823H624.709V142.156H631.911V148.856H624.709V165.513H632.994H632.981Z" fill="#C0A969"/>
<path d="M602.894 141.004H595.455V118.971H586.655V173.352H595.455V149.942H602.894V173.352H611.694V118.971H602.894V141.004ZM604.044 120.123H610.558V172.2H604.044V148.79H594.306V172.2H587.805V120.123H594.306V142.156H604.044V120.123Z" fill="#C0A969"/>
<path d="M544.228 153.887C549.169 150.352 552.129 144.552 552.129 138.395C552.129 124.055 543.131 118.971 535.428 118.971H528.425V173.352H537.225V159.727L543.884 173.352H554.455L543.977 154.033L544.228 153.874V153.887ZM552.539 172.2H544.611L537.172 156.999L536.075 157.198V158.151V172.186H529.574V120.109H535.441C542.061 120.109 550.993 124.135 550.993 138.382C550.993 144.089 548.297 149.558 543.58 152.934L542.483 153.623L552.552 172.186L552.539 172.2Z" fill="#C0A969"/>
<path d="M453.307 106.815V184.752H709.261V106.815H453.307ZM706.684 182.17H455.884V109.397H706.697V182.17H706.684Z" fill="#C0A969"/>
<path d="M644.807 184.739L659.566 250.613L581 204.495L502.434 250.613L517.022 184.739H509.834L492.776 264L581 212.201L669.238 264L652.167 184.739H644.807Z" fill="#C0A969"/>
<path d="M620.309 83.4318L580.987 0L541.691 83.4318L438.297 93.4685L453.308 107.08V106.816H461.975L453.889 98.6326L546.078 89.6948L581 15.5715L615.923 89.6948L708.111 98.6458L698.281 106.816H708.996L723.703 93.4685L620.309 83.4318Z" fill="#C0A969"/>
</g>
<defs>
<clipPath id="clip0_804_569">
<rect width="285.405" height="264" fill="white" transform="translate(438.297)"/>
</clipPath>
</defs>
</svg>
